<?xml version="1.0" encoding="UTF-8" standalone="no"?><!DOCTYPE svg PUBLIC "-//W3C//DTD SVG 1.1//EN" "http://www.w3.org/Graphics/SVG/1.1/DTD/svg11.dtd"><svg width="100%" height="100%" viewBox="0 0 297 43" version="1.1" xmlns="http://www.w3.org/2000/svg" xmlns:xlink="http://www.w3.org/1999/xlink" xml:space="preserve" xmlns:serif="http://www.serif.com/" style="fill-rule:evenodd;clip-rule:evenodd;stroke-linejoin:round;stroke-miterlimit:2;"><g transform="matrix(0.75,0,0,0.75,-99.4998,-87.889)"><g transform="matrix(78.1786,0,0,78.1786,125,173)"><rect x="0.098" y="-0.7" width="0.096" height="0.7" style="fill-rule:nonzero;"/></g><g transform="matrix(78.1786,0,0,78.1786,147.828,173)"><path d="M0.579,-0.7l-0.562,0l0,0.088l0.233,-0l0,0.612l0.096,-0l-0,-0.612l0.233,-0l-0,-0.088Z" style="fill-rule:nonzero;"/></g><g transform="matrix(78.1786,0,0,78.1786,193.954,173)"><path d="M0.32,0.014c0.157,-0 0.266,-0.081 0.266,-0.215c-0,-0.111 -0.067,-0.175 -0.244,-0.207c-0.123,-0.022 -0.172,-0.05 -0.172,-0.11c-0,-0.066 0.068,-0.107 0.157,-0.107c0.061,-0 0.127,0.017 0.177,0.056l0.053,-0.07c-0.07,-0.054 -0.145,-0.075 -0.233,-0.075c-0.142,0 -0.251,0.08 -0.251,0.201c0,0.107 0.077,0.165 0.242,0.191c0.13,0.021 0.174,0.059 0.174,0.123c0,0.077 -0.073,0.122 -0.168,0.122c-0.085,0 -0.162,-0.032 -0.22,-0.075l-0.048,0.073c0.063,0.054 0.158,0.093 0.267,0.093Z" style="fill-rule:nonzero;"/></g><g transform="matrix(78.1786,0,0,78.1786,243.05,173)"><path d="M0.194,-0.09l-0,-0.61l-0.096,0l0,0.7l0.473,-0l-0,-0.09l-0.377,0Z" style="fill-rule:nonzero;"/></g><g transform="matrix(78.1786,0,0,78.1786,289.175,173)"><path d="M0.663,-0l0.047,-0l-0.314,-0.7l-0.051,0l-0.314,0.7l0.048,-0l0.079,-0.177l0.424,-0l0.081,0.177Zm-0.293,-0.656l0.002,-0c0.025,0.06 0.048,0.111 0.093,0.212l0.099,0.225l-0.387,0l0.099,-0.223c0.045,-0.1 0.068,-0.154 0.094,-0.214Z" style="fill-rule:nonzero;"/></g><g transform="matrix(78.1786,0,0,78.1786,345.542,173)"><path d="M0.301,0.008c0.108,-0 0.19,-0.061 0.211,-0.133l0.002,0c-0.002,0.048 -0.002,0.069 -0.002,0.125l0.041,-0l-0,-0.7l-0.042,0l0,0.194c0,0.051 0,0.086 0.003,0.133l-0.002,-0c-0.023,-0.068 -0.105,-0.129 -0.212,-0.129c-0.144,0 -0.247,0.105 -0.247,0.255c0,0.15 0.103,0.255 0.248,0.255Zm0.001,-0.039c-0.12,0 -0.207,-0.086 -0.207,-0.216c-0,-0.13 0.087,-0.216 0.208,-0.216c0.121,-0 0.208,0.086 0.208,0.216c0,0.131 -0.087,0.216 -0.209,0.216Z" style="fill-rule:nonzero;"/></g><g transform="matrix(78.1786,0,0,78.1786,395.732,173)"><path d="M0.663,-0.501c-0.08,0 -0.152,0.046 -0.184,0.127c-0.025,-0.084 -0.09,-0.127 -0.179,-0.127c-0.081,0 -0.15,0.049 -0.171,0.114l-0.002,-0c0.003,-0.036 0.003,-0.072 0.003,-0.107l-0.041,0l0,0.494l0.042,-0l-0,-0.278c-0,-0.106 0.07,-0.183 0.166,-0.183c0.1,-0 0.155,0.064 0.155,0.175l0,0.286l0.042,-0l-0,-0.278c-0,-0.105 0.07,-0.183 0.166,-0.183c0.1,-0 0.155,0.064 0.155,0.175l0,0.286l0.042,-0l-0,-0.29c-0,-0.131 -0.072,-0.211 -0.194,-0.211Z" style="fill-rule:nonzero;"/></g><g transform="matrix(78.1786,0,0,78.1786,469.22,173)"><path d="M0.11,-0.611c0.022,0 0.038,-0.016 0.038,-0.037c-0,-0.021 -0.016,-0.038 -0.038,-0.038c-0.022,0 -0.038,0.017 -0.038,0.038c0,0.021 0.016,0.037 0.038,0.037Zm-0.021,0.611l0.042,-0l-0,-0.494l-0.042,0l0,0.494Z" style="fill-rule:nonzero;"/></g><g transform="matrix(78.1786,0,0,78.1786,486.498,173)"><path d="M0.089,-0l0.042,-0l-0,-0.275c-0,-0.105 0.079,-0.186 0.19,-0.186c0.11,-0 0.17,0.063 0.17,0.177l0,0.284l0.042,-0l-0,-0.286c-0,-0.137 -0.076,-0.215 -0.208,-0.215c-0.092,0 -0.167,0.049 -0.195,0.114l-0.002,-0c0.002,-0.036 0.002,-0.072 0.002,-0.107l-0.041,0l0,0.494Z" style="fill-rule:nonzero;"/></g></g></svg>